<mxfile host="app.diagrams.net" modified="2024-01-09T02:32:01.898Z" agent="Mozilla/5.0 (Macintosh; Intel Mac OS X 10_15_7) AppleWebKit/537.36 (KHTML, like Gecko) Chrome/120.0.0.0 Safari/537.36" etag="6XfOsDVdXsBrL6OOtPeX" version="22.1.17" type="device">
  <diagram name="PÃ¡gina-1" id="_55a7B42rKIJuqnAZTk7">
    <mxGraphModel dx="3290" dy="2025" grid="1" gridSize="10" guides="1" tooltips="1" connect="1" arrows="1" fold="1" page="1" pageScale="1" pageWidth="850" pageHeight="1100" math="0" shadow="0">
      <root>
        <mxCell id="0" />
        <mxCell id="1" parent="0" />
        <mxCell id="0Ht6nwNdt_Cvm4wF6PPO-54" value="" style="group" vertex="1" connectable="0" parent="1">
          <mxGeometry x="250" y="-250" width="1190" height="800" as="geometry" />
        </mxCell>
        <mxCell id="0Ht6nwNdt_Cvm4wF6PPO-51" value="" style="rounded=1;arcSize=10;dashed=0;fillColor=#fff2cc;strokeWidth=2;strokeColor=#d6b656;gradientColor=none;fillStyle=auto;shadow=1;opacity=20;" vertex="1" parent="0Ht6nwNdt_Cvm4wF6PPO-54">
          <mxGeometry y="61.91" width="1190" height="738.09" as="geometry" />
        </mxCell>
        <mxCell id="0Ht6nwNdt_Cvm4wF6PPO-52" value="" style="dashed=0;html=1;shape=mxgraph.aws3.cloud;fillColor=#F58536;gradientColor=none;dashed=0;" vertex="1" parent="0Ht6nwNdt_Cvm4wF6PPO-54">
          <mxGeometry x="61.90899999999999" width="160.9634" height="111.43636363636364" as="geometry" />
        </mxCell>
        <mxCell id="0Ht6nwNdt_Cvm4wF6PPO-25" value="" style="group" vertex="1" connectable="0" parent="1">
          <mxGeometry x="323.96" y="150" width="120" height="110" as="geometry" />
        </mxCell>
        <mxCell id="0Ht6nwNdt_Cvm4wF6PPO-23" value="" style="rounded=1;whiteSpace=wrap;html=1;" vertex="1" parent="0Ht6nwNdt_Cvm4wF6PPO-25">
          <mxGeometry width="120" height="110" as="geometry" />
        </mxCell>
        <mxCell id="0Ht6nwNdt_Cvm4wF6PPO-5" value="Gateway" style="outlineConnect=0;dashed=0;verticalLabelPosition=bottom;verticalAlign=top;align=center;html=1;shape=mxgraph.aws3.api_gateway;fillColor=#D9A741;gradientColor=none;" vertex="1" parent="0Ht6nwNdt_Cvm4wF6PPO-25">
          <mxGeometry x="35.32499999999999" y="15" width="49.35" height="60" as="geometry" />
        </mxCell>
        <mxCell id="0Ht6nwNdt_Cvm4wF6PPO-27" value="" style="group" vertex="1" connectable="0" parent="1">
          <mxGeometry x="323.96" y="-70" width="120" height="110" as="geometry" />
        </mxCell>
        <mxCell id="0Ht6nwNdt_Cvm4wF6PPO-24" value="" style="rounded=1;whiteSpace=wrap;html=1;" vertex="1" parent="0Ht6nwNdt_Cvm4wF6PPO-27">
          <mxGeometry width="120" height="110" as="geometry" />
        </mxCell>
        <mxCell id="0Ht6nwNdt_Cvm4wF6PPO-9" value="Lambda&lt;br&gt;Autorized" style="outlineConnect=0;dashed=0;verticalLabelPosition=bottom;verticalAlign=top;align=center;html=1;shape=mxgraph.aws3.lambda_function;fillColor=#F58534;gradientColor=none;" vertex="1" parent="0Ht6nwNdt_Cvm4wF6PPO-27">
          <mxGeometry x="36.04000000000002" y="12.75" width="47.92" height="50" as="geometry" />
        </mxCell>
        <mxCell id="0Ht6nwNdt_Cvm4wF6PPO-28" style="edgeStyle=orthogonalEdgeStyle;rounded=0;orthogonalLoop=1;jettySize=auto;html=1;exitX=0.25;exitY=1;exitDx=0;exitDy=0;entryX=0.25;entryY=0;entryDx=0;entryDy=0;" edge="1" parent="1" source="0Ht6nwNdt_Cvm4wF6PPO-24" target="0Ht6nwNdt_Cvm4wF6PPO-23">
          <mxGeometry relative="1" as="geometry" />
        </mxCell>
        <mxCell id="0Ht6nwNdt_Cvm4wF6PPO-29" style="edgeStyle=orthogonalEdgeStyle;rounded=0;orthogonalLoop=1;jettySize=auto;html=1;exitX=0.75;exitY=0;exitDx=0;exitDy=0;entryX=0.75;entryY=1;entryDx=0;entryDy=0;" edge="1" parent="1" source="0Ht6nwNdt_Cvm4wF6PPO-23" target="0Ht6nwNdt_Cvm4wF6PPO-24">
          <mxGeometry relative="1" as="geometry" />
        </mxCell>
        <mxCell id="0Ht6nwNdt_Cvm4wF6PPO-32" value="" style="group" vertex="1" connectable="0" parent="1">
          <mxGeometry x="910" y="150" width="120" height="110" as="geometry" />
        </mxCell>
        <mxCell id="0Ht6nwNdt_Cvm4wF6PPO-31" value="" style="rounded=1;whiteSpace=wrap;html=1;" vertex="1" parent="0Ht6nwNdt_Cvm4wF6PPO-32">
          <mxGeometry width="120" height="110" as="geometry" />
        </mxCell>
        <mxCell id="0Ht6nwNdt_Cvm4wF6PPO-4" value="Queue" style="outlineConnect=0;dashed=0;verticalLabelPosition=bottom;verticalAlign=top;align=center;html=1;shape=mxgraph.aws3.queue;fillColor=#D9A741;gradientColor=none;" vertex="1" parent="0Ht6nwNdt_Cvm4wF6PPO-32">
          <mxGeometry x="23.25" y="23.5" width="73.5" height="48" as="geometry" />
        </mxCell>
        <mxCell id="0Ht6nwNdt_Cvm4wF6PPO-33" value="" style="group" vertex="1" connectable="0" parent="1">
          <mxGeometry x="600" y="150" width="120" height="110" as="geometry" />
        </mxCell>
        <mxCell id="0Ht6nwNdt_Cvm4wF6PPO-30" value="" style="rounded=1;whiteSpace=wrap;html=1;" vertex="1" parent="0Ht6nwNdt_Cvm4wF6PPO-33">
          <mxGeometry width="120" height="110" as="geometry" />
        </mxCell>
        <mxCell id="0Ht6nwNdt_Cvm4wF6PPO-7" value="BFF&lt;br&gt;Waiter" style="outlineConnect=0;dashed=0;verticalLabelPosition=bottom;verticalAlign=top;align=center;html=1;shape=mxgraph.aws3.ec2_compute_container;fillColor=#F58534;gradientColor=none;" vertex="1" parent="0Ht6nwNdt_Cvm4wF6PPO-33">
          <mxGeometry x="30" y="18.75" width="60" height="34.5" as="geometry" />
        </mxCell>
        <mxCell id="0Ht6nwNdt_Cvm4wF6PPO-35" value="" style="group" vertex="1" connectable="0" parent="1">
          <mxGeometry x="1219.9999999999998" y="150" width="119.99999999999989" height="110" as="geometry" />
        </mxCell>
        <mxCell id="0Ht6nwNdt_Cvm4wF6PPO-34" value="" style="rounded=1;whiteSpace=wrap;html=1;" vertex="1" parent="0Ht6nwNdt_Cvm4wF6PPO-35">
          <mxGeometry width="120" height="110" as="geometry" />
        </mxCell>
        <mxCell id="0Ht6nwNdt_Cvm4wF6PPO-6" value="Lambda&lt;br&gt;Chief" style="outlineConnect=0;dashed=0;verticalLabelPosition=bottom;verticalAlign=top;align=center;html=1;shape=mxgraph.aws3.lambda;fillColor=#F58534;gradientColor=none;" vertex="1" parent="0Ht6nwNdt_Cvm4wF6PPO-35">
          <mxGeometry x="35.110000000000014" y="5.5" width="49.77" height="60.5" as="geometry" />
        </mxCell>
        <mxCell id="0Ht6nwNdt_Cvm4wF6PPO-37" value="" style="group" vertex="1" connectable="0" parent="1">
          <mxGeometry x="910" y="350" width="120" height="110" as="geometry" />
        </mxCell>
        <mxCell id="0Ht6nwNdt_Cvm4wF6PPO-36" value="" style="rounded=1;whiteSpace=wrap;html=1;" vertex="1" parent="0Ht6nwNdt_Cvm4wF6PPO-37">
          <mxGeometry width="120" height="110" as="geometry" />
        </mxCell>
        <mxCell id="0Ht6nwNdt_Cvm4wF6PPO-10" value="Notification" style="outlineConnect=0;dashed=0;verticalLabelPosition=bottom;verticalAlign=top;align=center;html=1;shape=mxgraph.aws3.sns;fillColor=#D9A741;gradientColor=none;" vertex="1" parent="0Ht6nwNdt_Cvm4wF6PPO-37">
          <mxGeometry x="30.25" y="13" width="58.25" height="58.25" as="geometry" />
        </mxCell>
        <mxCell id="0Ht6nwNdt_Cvm4wF6PPO-38" value="" style="group" vertex="1" connectable="0" parent="1">
          <mxGeometry x="1220" y="-80" width="120" height="110" as="geometry" />
        </mxCell>
        <mxCell id="0Ht6nwNdt_Cvm4wF6PPO-26" value="" style="rounded=1;whiteSpace=wrap;html=1;" vertex="1" parent="0Ht6nwNdt_Cvm4wF6PPO-38">
          <mxGeometry width="120" height="110" as="geometry" />
        </mxCell>
        <mxCell id="0Ht6nwNdt_Cvm4wF6PPO-11" value="DB&lt;br&gt;" style="outlineConnect=0;dashed=0;verticalLabelPosition=bottom;verticalAlign=top;align=center;html=1;shape=mxgraph.aws3.dynamo_db;fillColor=#2E73B8;gradientColor=none;" vertex="1" parent="0Ht6nwNdt_Cvm4wF6PPO-38">
          <mxGeometry x="35.33000000000004" y="20" width="49.33" height="55.5" as="geometry" />
        </mxCell>
        <mxCell id="0Ht6nwNdt_Cvm4wF6PPO-39" style="edgeStyle=orthogonalEdgeStyle;rounded=0;orthogonalLoop=1;jettySize=auto;html=1;exitX=1;exitY=0.25;exitDx=0;exitDy=0;entryX=0;entryY=0.25;entryDx=0;entryDy=0;" edge="1" parent="1" source="0Ht6nwNdt_Cvm4wF6PPO-23" target="0Ht6nwNdt_Cvm4wF6PPO-30">
          <mxGeometry relative="1" as="geometry" />
        </mxCell>
        <mxCell id="0Ht6nwNdt_Cvm4wF6PPO-40" style="edgeStyle=orthogonalEdgeStyle;rounded=0;orthogonalLoop=1;jettySize=auto;html=1;exitX=1;exitY=0.5;exitDx=0;exitDy=0;" edge="1" parent="1" source="0Ht6nwNdt_Cvm4wF6PPO-30" target="0Ht6nwNdt_Cvm4wF6PPO-31">
          <mxGeometry relative="1" as="geometry" />
        </mxCell>
        <mxCell id="0Ht6nwNdt_Cvm4wF6PPO-41" style="edgeStyle=orthogonalEdgeStyle;rounded=0;orthogonalLoop=1;jettySize=auto;html=1;exitX=1;exitY=0.5;exitDx=0;exitDy=0;entryX=0;entryY=0.5;entryDx=0;entryDy=0;" edge="1" parent="1" source="0Ht6nwNdt_Cvm4wF6PPO-31" target="0Ht6nwNdt_Cvm4wF6PPO-34">
          <mxGeometry relative="1" as="geometry" />
        </mxCell>
        <mxCell id="0Ht6nwNdt_Cvm4wF6PPO-42" style="edgeStyle=orthogonalEdgeStyle;rounded=0;orthogonalLoop=1;jettySize=auto;html=1;exitX=0.5;exitY=0;exitDx=0;exitDy=0;entryX=0.5;entryY=1;entryDx=0;entryDy=0;" edge="1" parent="1" source="0Ht6nwNdt_Cvm4wF6PPO-34" target="0Ht6nwNdt_Cvm4wF6PPO-26">
          <mxGeometry relative="1" as="geometry" />
        </mxCell>
        <mxCell id="0Ht6nwNdt_Cvm4wF6PPO-43" style="edgeStyle=orthogonalEdgeStyle;rounded=0;orthogonalLoop=1;jettySize=auto;html=1;exitX=0.5;exitY=0;exitDx=0;exitDy=0;entryX=0;entryY=0.5;entryDx=0;entryDy=0;" edge="1" parent="1" source="0Ht6nwNdt_Cvm4wF6PPO-30" target="0Ht6nwNdt_Cvm4wF6PPO-26">
          <mxGeometry relative="1" as="geometry" />
        </mxCell>
        <mxCell id="0Ht6nwNdt_Cvm4wF6PPO-44" style="edgeStyle=orthogonalEdgeStyle;rounded=0;orthogonalLoop=1;jettySize=auto;html=1;exitX=0.5;exitY=1;exitDx=0;exitDy=0;entryX=1;entryY=0.5;entryDx=0;entryDy=0;" edge="1" parent="1" source="0Ht6nwNdt_Cvm4wF6PPO-34" target="0Ht6nwNdt_Cvm4wF6PPO-36">
          <mxGeometry relative="1" as="geometry" />
        </mxCell>
        <mxCell id="0Ht6nwNdt_Cvm4wF6PPO-45" style="edgeStyle=orthogonalEdgeStyle;rounded=0;orthogonalLoop=1;jettySize=auto;html=1;exitX=0;exitY=0.5;exitDx=0;exitDy=0;entryX=0.5;entryY=1;entryDx=0;entryDy=0;" edge="1" parent="1" source="0Ht6nwNdt_Cvm4wF6PPO-36" target="0Ht6nwNdt_Cvm4wF6PPO-30">
          <mxGeometry relative="1" as="geometry" />
        </mxCell>
        <mxCell id="0Ht6nwNdt_Cvm4wF6PPO-50" value="" style="group" vertex="1" connectable="0" parent="1">
          <mxGeometry x="-10.000000000000028" y="150" width="120" height="110" as="geometry" />
        </mxCell>
        <mxCell id="0Ht6nwNdt_Cvm4wF6PPO-48" value="" style="rounded=1;whiteSpace=wrap;html=1;" vertex="1" parent="0Ht6nwNdt_Cvm4wF6PPO-50">
          <mxGeometry width="120" height="110" as="geometry" />
        </mxCell>
        <mxCell id="0Ht6nwNdt_Cvm4wF6PPO-1" value="" style="outlineConnect=0;dashed=0;verticalLabelPosition=bottom;verticalAlign=top;align=center;html=1;shape=mxgraph.aws3.management_console;fillColor=#D2D3D3;gradientColor=none;" vertex="1" parent="0Ht6nwNdt_Cvm4wF6PPO-50">
          <mxGeometry x="28.50000000000003" y="23.5" width="63" height="63" as="geometry" />
        </mxCell>
        <mxCell id="0Ht6nwNdt_Cvm4wF6PPO-56" style="edgeStyle=orthogonalEdgeStyle;rounded=0;orthogonalLoop=1;jettySize=auto;html=1;exitX=1;exitY=0.25;exitDx=0;exitDy=0;entryX=0;entryY=0.25;entryDx=0;entryDy=0;" edge="1" parent="1" source="0Ht6nwNdt_Cvm4wF6PPO-48" target="0Ht6nwNdt_Cvm4wF6PPO-23">
          <mxGeometry relative="1" as="geometry" />
        </mxCell>
        <mxCell id="0Ht6nwNdt_Cvm4wF6PPO-57" style="edgeStyle=orthogonalEdgeStyle;rounded=0;orthogonalLoop=1;jettySize=auto;html=1;exitX=0;exitY=0.75;exitDx=0;exitDy=0;entryX=1;entryY=0.75;entryDx=0;entryDy=0;" edge="1" parent="1" source="0Ht6nwNdt_Cvm4wF6PPO-23" target="0Ht6nwNdt_Cvm4wF6PPO-48">
          <mxGeometry relative="1" as="geometry" />
        </mxCell>
        <mxCell id="0Ht6nwNdt_Cvm4wF6PPO-58" style="edgeStyle=orthogonalEdgeStyle;rounded=0;orthogonalLoop=1;jettySize=auto;html=1;exitX=0;exitY=0.75;exitDx=0;exitDy=0;entryX=1;entryY=0.75;entryDx=0;entryDy=0;" edge="1" parent="1" source="0Ht6nwNdt_Cvm4wF6PPO-30" target="0Ht6nwNdt_Cvm4wF6PPO-23">
          <mxGeometry relative="1" as="geometry" />
        </mxCell>
      </root>
    </mxGraphModel>
  </diagram>
</mxfile>
